<svg height="512" viewBox="0 0 128 128" width="512" xmlns="http://www.w3.org/2000/svg"><g id="Circle_Grid" data-name="Circle Grid"><circle cx="64" cy="64" fill="#fcd462" r="64"/></g><g id="icon"><g fill="#2f4859"><rect height="15.855" rx="2.045" transform="matrix(1 -.006 .006 1 -.507 .565)" width="10.015" x="89.388" y="77.326"/><rect height="15.855" rx="2.045" transform="matrix(1 -.006 .006 1 -.51 .205)" width="10.015" x="29.095" y="77.685"/><path d="m98.121 48.69a.956.956 0 0 0 -.866.962 1.933 1.933 0 0 1 -1.448 2.116l-1.474.009.757 2.209s9.49-.057 9.206-3.174c-.22-2.419-4.339-2.298-6.175-2.122z"/><path d="m29.879 48.69a.956.956 0 0 1 .866.962 1.933 1.933 0 0 0 1.448 2.116l1.474.009-.757 2.209s-9.49-.057-9.206-3.174c.22-2.419 4.339-2.298 6.175-2.122z"/></g><path d="m102.181 67.2a16.329 16.329 0 0 0 -1.966-6.61l-4-7.336s-7.103-16.01-10.062-17.284c-2.861-1.232-21.123-1.509-22.333-1.526h-.067c-1.21.032-19.467.527-22.313 1.793-2.944 1.309-9.859 17.4-9.859 17.4l-3.909 7.384a16.343 16.343 0 0 0 -1.887 6.632 47.8 47.8 0 0 0 1.635 15.208 5.33 5.33 0 0 0 5.191 3.921l31.453-.182h.067l31.453-.187a5.331 5.331 0 0 0 5.143-3.983 47.771 47.771 0 0 0 1.454-15.23z" fill="#fe7058"/><rect fill="#3a556a" height="7.205" rx=".993" transform="matrix(1 -.006 .006 1 -.477 .383)" width="32.637" x="47.73" y="76.623"/><path d="m86.727 38.385a2 2 0 0 0 -1.777-1.165l-20.958-.43h-.066l-20.952.68a2 2 0 0 0 -1.762 1.186l-6.012 13.523 28.815-.172h.066l28.819-.172z" fill="#2f4859"/><path d="m93.549 75.649a3.658 3.658 0 1 0 3.679 3.635 3.658 3.658 0 0 0 -3.679-3.635z" fill="#ebf0f3"/><path d="m34.811 76a3.658 3.658 0 1 0 3.68 3.636 3.658 3.658 0 0 0 -3.68-3.636z" fill="#ebf0f3"/><path d="m50.305 67.436h26.678v3.33h-26.678z" fill="#3a556a"/><path d="m98.682 62.2a1.42 1.42 0 0 0 -1.751-1.219l-12.2 2.983a1.421 1.421 0 0 0 -.877.645l-2.417 4a1.418 1.418 0 0 0 1.214 2.151h11.92a1.428 1.428 0 0 0 .786-.229c2.812-1.862 3.692-4.763 3.325-8.331z" fill="#e1e6e9"/><path d="m92.9 63.332a2.673 2.673 0 1 0 2.78 2.562 2.674 2.674 0 0 0 -2.78-2.562z" fill="#bdbec1"/><path d="m87.237 65.883a2.033 2.033 0 1 0 2.113 1.948 2.033 2.033 0 0 0 -2.113-1.948z" fill="#bdbec1"/><path d="m29.318 62.2a1.42 1.42 0 0 1 1.751-1.219l12.2 2.983a1.421 1.421 0 0 1 .877.645l2.417 4a1.418 1.418 0 0 1 -1.214 2.151h-11.92a1.428 1.428 0 0 1 -.786-.229c-2.812-1.862-3.692-4.763-3.325-8.331z" fill="#e1e6e9"/><path d="m35.1 63.332a2.673 2.673 0 1 1 -2.78 2.562 2.674 2.674 0 0 1 2.78-2.562z" fill="#bdbec1"/><path d="m40.763 65.883a2.033 2.033 0 1 1 -2.113 1.948 2.033 2.033 0 0 1 2.113-1.948z" fill="#bdbec1"/></g></svg>